<svg width="162" height="141" viewBox="0 0 162 141" fill="none" xmlns="http://www.w3.org/2000/svg">
<path d="M161.371 13.2345C109.186 -6.22475 51.408 -4.15641 0.747009 18.9845L56.27 140.536C74.693 132.12 95.704 131.368 114.682 138.445L161.371 13.2345Z" fill="#5CD38C"/>
<path fill-rule="evenodd" clip-rule="evenodd" d="M77.676 43.807L79.589 45.3407L78.945 47.7032C78.836 48.1036 78.983 48.5198 79.32 48.7638C79.489 48.8874 79.693 48.9541 79.903 48.9544C80.091 48.9544 80.28 48.9001 80.447 48.7911L82.501 47.4503L84.555 48.7911C84.903 49.0183 85.345 49.0079 85.683 48.7635C86.019 48.5195 86.166 48.1034 86.056 47.7031L85.412 45.3407L87.326 43.8071C87.65 43.5474 87.777 43.1246 87.648 42.7299C87.52 42.335 87.168 42.0668 86.752 42.0466L84.3 41.9274L83.429 39.6388C83.281 39.2509 82.917 39 82.501 39C82.085 39 81.72 39.2507 81.573 39.6386L80.701 41.9274L78.249 42.0466C77.834 42.0668 77.482 42.335 77.354 42.7292C77.225 43.1242 77.351 43.5474 77.676 43.807ZM81.153 43.4698C81.346 43.4605 81.532 43.3953 81.688 43.282C81.844 43.1688 81.964 43.0126 82.033 42.8325L82.501 41.6029L82.969 42.8326C83.037 43.0126 83.157 43.1688 83.313 43.282C83.47 43.3952 83.656 43.4605 83.848 43.4698L85.166 43.5338L84.138 44.3577C83.987 44.4784 83.875 44.6403 83.816 44.8234C83.756 45.0066 83.751 45.2032 83.802 45.3891L84.148 46.6582L83.045 45.9383C82.883 45.8326 82.694 45.7762 82.501 45.7761C82.308 45.7761 82.118 45.8323 81.957 45.9379L80.853 46.6582L81.199 45.3887C81.25 45.2029 81.245 45.0063 81.186 44.8232C81.126 44.6401 81.014 44.4783 80.863 44.3577L79.835 43.5338L81.153 43.4698ZM88.719 45.9191L90.632 47.4527L89.988 49.8152C89.879 50.2156 90.026 50.6318 90.362 50.8757C90.532 50.9993 90.736 51.0661 90.946 51.0664C91.134 51.0664 91.323 51.0121 91.49 50.9031L93.544 49.5623L95.598 50.9031C95.946 51.1302 96.388 51.1197 96.725 50.8754C97.062 50.6315 97.209 50.2153 97.099 49.8152L96.455 47.4527L98.369 45.9192C98.693 45.659 98.82 45.236 98.691 44.8419C98.563 44.447 98.211 44.1787 97.795 44.1586L95.343 44.0394L94.472 41.7507C94.324 41.3629 93.96 41.112 93.544 41.112C93.128 41.112 92.763 41.3627 92.616 41.7506L91.744 44.0394L89.292 44.1586C88.877 44.1787 88.525 44.447 88.397 44.8411C88.268 45.2357 88.394 45.6586 88.719 45.9191ZM92.196 45.5817C92.389 45.5724 92.575 45.5071 92.731 45.3939C92.887 45.2807 93.007 45.1245 93.076 44.9444L93.544 43.7148L94.012 44.9445C94.08 45.1245 94.2 45.2807 94.356 45.3939C94.512 45.5071 94.698 45.5724 94.891 45.5817L96.209 45.6457L95.181 46.4697C95.03 46.5903 94.918 46.7522 94.858 46.9354C94.799 47.1185 94.794 47.3151 94.845 47.501L95.191 48.7701L94.088 48.0502C93.926 47.9444 93.737 47.888 93.544 47.8879C93.35 47.8878 93.161 47.9441 93 48.0498L91.896 48.77L92.242 47.5008C92.293 47.3149 92.288 47.1184 92.228 46.9352C92.169 46.7521 92.057 46.5903 91.906 46.4696L90.878 45.6457L92.196 45.5817ZM66.633 45.9191L68.546 47.4527L67.903 49.8145C67.793 50.2152 67.94 50.6317 68.277 50.8758C68.446 50.9994 68.65 51.0662 68.86 51.0666C69.048 51.0666 69.237 51.0123 69.404 50.9032L71.458 49.5624L73.512 50.9032C73.86 51.1305 74.302 51.1199 74.639 50.8758C74.976 50.632 75.123 50.2157 75.014 49.8153L74.37 47.4528L76.283 45.9189C76.608 45.6587 76.734 45.2358 76.605 44.842C76.477 44.4471 76.125 44.1788 75.71 44.1587L73.258 44.0395L72.386 41.7508C72.238 41.363 71.874 41.1121 71.458 41.1121C71.042 41.1121 70.677 41.3631 70.53 41.7507L69.659 44.0395L67.207 44.1587C66.791 44.1788 66.44 44.4468 66.311 44.842C66.182 45.2365 66.309 45.6592 66.633 45.9191ZM70.11 45.5817C70.303 45.5724 70.489 45.5072 70.645 45.394C70.802 45.2808 70.921 45.1245 70.99 44.9444L71.458 43.7149L71.926 44.9445C71.994 45.1245 72.114 45.2807 72.27 45.3939C72.427 45.5071 72.613 45.5724 72.806 45.5817L74.123 45.6457L73.094 46.4699C72.944 46.5907 72.832 46.7525 72.773 46.9356C72.713 47.1187 72.708 47.3151 72.759 47.5009L73.105 48.77L72.002 48.0501C71.84 47.9444 71.651 47.888 71.458 47.8879C71.265 47.8879 71.076 47.9441 70.914 48.0497L69.811 48.7699L70.157 47.5007C70.207 47.3148 70.202 47.1183 70.143 46.9351C70.083 46.7519 69.971 46.5901 69.82 46.4695L68.793 45.6456L70.11 45.5817ZM74.497 58.0072C75.084 57.3973 75.447 56.57 75.447 55.6594C75.447 53.7896 73.922 52.2682 72.047 52.2682C70.171 52.2682 68.646 53.7895 68.646 55.6594C68.646 56.5703 69.009 57.3979 69.597 58.0078C68.072 58.6885 66.873 59.9952 66.353 61.6712C66.165 62.2743 66.273 62.9104 66.646 63.4162C67.02 63.9222 67.598 64.2123 68.231 64.2123H74.839V64.8256C74.839 66.273 76.02 67.4506 77.471 67.4506H87.531C88.982 67.4506 90.163 66.273 90.163 64.8256V64.2126H96.77C97.404 64.2126 97.981 63.9224 98.355 63.4165C98.729 62.9106 98.836 62.2745 98.649 61.6714C98.129 59.9954 96.929 58.6887 95.405 58.008C95.993 57.398 96.356 56.5705 96.356 55.6596C96.356 53.7898 94.83 52.2684 92.955 52.2684C91.08 52.2684 89.555 53.7897 89.555 55.6596C89.555 56.5702 89.917 57.3974 90.505 58.0073C89.765 58.3388 89.102 58.8191 88.556 59.4182C87.706 58.3405 86.581 57.5099 85.299 57.013C86.207 56.2295 86.782 55.0737 86.782 53.7857C86.782 51.4314 84.862 49.5159 82.501 49.5159C80.14 49.5159 78.219 51.4313 78.219 53.7857C78.219 55.0737 78.795 56.2295 79.702 57.013C78.421 57.5099 77.296 58.3405 76.445 59.4182C75.9 58.8191 75.237 58.3387 74.497 58.0072ZM72.047 53.8307C73.058 53.8307 73.88 54.651 73.88 55.6594C73.88 56.6678 73.058 57.4881 72.047 57.4881C71.035 57.4881 70.213 56.6678 70.213 55.6594C70.213 54.651 71.035 53.8307 72.047 53.8307ZM67.908 62.4892C67.87 62.4389 67.845 62.3803 67.835 62.3183C67.825 62.2564 67.83 62.193 67.849 62.1333C68.422 60.2893 70.109 59.0504 72.046 59.0504C73.455 59.0504 74.742 59.7043 75.569 60.8165C75.286 61.3991 75.078 62.0151 74.951 62.6498H68.231C68.168 62.6509 68.106 62.6369 68.05 62.6089C67.994 62.5809 67.945 62.5399 67.908 62.4892ZM91.121 55.6596C91.121 54.6513 91.944 53.8309 92.955 53.8309C93.966 53.8309 94.789 54.6512 94.789 55.6596C94.789 56.668 93.966 57.4883 92.955 57.4883C91.944 57.4883 91.121 56.6679 91.121 55.6596ZM92.955 59.0506C94.893 59.0506 96.58 60.2896 97.152 62.1336C97.172 62.1932 97.177 62.2567 97.167 62.3186C97.156 62.3805 97.132 62.4391 97.094 62.4895C97.057 62.5402 97.008 62.5813 96.952 62.6092C96.895 62.6372 96.833 62.6513 96.77 62.6502H90.051C89.923 62.0154 89.715 61.3994 89.432 60.8167C90.26 59.7045 91.546 59.0506 92.955 59.0506ZM82.501 51.0784C83.998 51.0784 85.215 52.2929 85.215 53.7857C85.215 55.2784 83.998 56.4929 82.501 56.4929C81.004 56.4929 79.786 55.2784 79.786 53.7857C79.786 52.2929 81.004 51.0784 82.501 51.0784ZM82.501 58.0552C85.63 58.0552 88.244 60.382 88.596 63.474V64.8256C88.596 65.4115 88.118 65.8883 87.53 65.8883H77.471C76.884 65.8883 76.406 65.4116 76.406 64.8257V63.474C76.758 60.382 79.371 58.0552 82.501 58.0552ZM105.517 70.7983C105.068 70.0505 103.225 67.83 98.374 70.6479L89.859 75.5941C89.455 75.8287 89.044 75.9978 88.617 76.1031C88.77 75.8465 88.89 75.5595 88.975 75.2442C89.414 73.6098 88.44 71.9033 86.758 71.3595C86.725 71.3487 86.69 71.3402 86.656 71.3338C84.211 70.8941 81.797 70.0237 79.857 69.3244C79.182 69.0811 78.545 68.8513 78.002 68.676C75.811 67.9669 73.834 68.8431 72.189 69.7933L65.877 73.4373L65.199 72.2418C64.932 71.7707 64.495 71.4313 63.97 71.2861C63.445 71.141 62.895 71.2078 62.423 71.4745L60.033 72.823C59.056 73.3748 58.711 74.6168 59.264 75.5918L66.288 87.9694C66.663 88.6291 67.354 89 68.065 89C68.404 89 68.748 88.9152 69.065 88.7368L71.454 87.3883C71.926 87.1217 72.267 86.6864 72.412 86.1624C72.558 85.6385 72.491 85.0906 72.223 84.6195L71.608 83.5345L73.018 82.7225L83.914 85.6339C84.532 85.7993 85.139 85.8818 85.733 85.8818C86.918 85.8818 88.05 85.5537 89.116 84.8993L104.57 75.4095C105.991 74.5372 106.442 72.3393 105.517 70.7983ZM70.902 85.7452C70.886 85.8045 70.859 85.8602 70.821 85.9088C70.783 85.9574 70.736 85.9981 70.682 86.0285L68.293 87.3771C68.239 87.4073 68.18 87.4266 68.119 87.4339C68.058 87.4411 67.995 87.4362 67.936 87.4195C67.877 87.4034 67.821 87.3757 67.772 87.338C67.723 87.3003 67.682 87.2534 67.652 87.1999L60.628 74.8221C60.597 74.7685 60.578 74.7095 60.571 74.6484C60.563 74.5873 60.568 74.5254 60.585 74.4662C60.601 74.4068 60.629 74.3512 60.667 74.3025C60.704 74.2539 60.752 74.2132 60.805 74.1828L63.194 72.8343C63.264 72.795 63.343 72.7743 63.423 72.7743C63.466 72.7743 63.509 72.7802 63.551 72.792C63.611 72.808 63.667 72.8357 63.715 72.8734C63.764 72.9111 63.805 72.958 63.835 73.0115L69.864 83.6341L69.865 83.6358V83.637L70.86 85.3891C70.921 85.497 70.936 85.6235 70.902 85.7452ZM103.748 74.0791L88.295 83.5688C87.076 84.3172 85.738 84.5044 84.319 84.1247L73.11 81.1295C73.011 81.1029 72.907 81.0961 72.805 81.1095C72.703 81.1229 72.605 81.1562 72.516 81.2075L70.836 82.1746L66.649 74.7972L72.974 71.1455C74.388 70.3288 75.918 69.6442 77.519 70.1624C78.037 70.3297 78.633 70.5447 79.324 70.7939C81.305 71.5079 83.766 72.3952 86.321 72.8613C87.195 73.1672 87.685 74.0097 87.461 74.84C87.168 75.9322 86.254 76.0688 85.526 75.9856C84.273 75.7287 83.082 75.3896 81.822 75.0306C81.223 74.8602 80.605 74.684 79.969 74.514C79.768 74.4604 79.554 74.4885 79.374 74.5921C79.194 74.6957 79.063 74.8663 79.009 75.0665C78.955 75.2666 78.984 75.4799 79.087 75.6593C79.191 75.8387 79.362 75.9697 79.563 76.0233C80.187 76.1899 80.799 76.3643 81.391 76.5331C82.692 76.9034 83.92 77.2532 85.243 77.5229C85.248 77.524 85.253 77.5243 85.258 77.5252C85.263 77.5262 85.268 77.5278 85.274 77.5287L86.332 77.7003C87.923 77.9543 89.334 77.7069 90.647 76.9446L99.162 71.9983C101.599 70.5834 103.472 70.4349 104.172 71.6014C104.654 72.4036 104.441 73.6542 103.748 74.0791ZM63.969 75.3681C63.986 75.4792 63.982 75.5926 63.955 75.7018C63.928 75.8109 63.88 75.9137 63.813 76.0042C63.746 76.0947 63.662 76.171 63.565 76.2288C63.468 76.2867 63.361 76.3248 63.249 76.3411C63.138 76.3573 63.024 76.3514 62.915 76.3236C62.806 76.2958 62.703 76.2466 62.613 76.1791C62.523 76.1115 62.447 76.0268 62.39 75.9298C62.333 75.8329 62.296 75.7256 62.281 75.6142C62.25 75.392 62.309 75.1669 62.444 74.9877C62.58 74.8085 62.78 74.6898 63.003 74.6574C63.225 74.625 63.452 74.6814 63.632 74.8145C63.813 74.9476 63.934 75.1466 63.969 75.3681Z" fill="black"/>
</svg>
