<svg width="420" height="420" viewBox="0 0 420 420" fill="none" xmlns="http://www.w3.org/2000/svg">
<path d="M283.371 13.2345C231.186 -6.22476 173.408 -4.15642 122.747 18.9845L178.27 140.536C196.693 132.12 217.704 131.368 236.682 138.445L283.371 13.2345Z" fill="#5CD38C"/>
<path fill-rule="evenodd" clip-rule="evenodd" d="M199.676 43.807L201.589 45.3407L200.945 47.7032C200.836 48.1036 200.983 48.5198 201.32 48.7638C201.489 48.8874 201.693 48.9541 201.903 48.9544C202.091 48.9544 202.28 48.9001 202.447 48.7911L204.501 47.4503L206.555 48.7911C206.903 49.0183 207.345 49.0079 207.683 48.7635C208.019 48.5195 208.166 48.1034 208.056 47.7031L207.412 45.3407L209.326 43.8071C209.65 43.5474 209.777 43.1246 209.648 42.7299C209.52 42.335 209.168 42.0668 208.752 42.0466L206.3 41.9274L205.429 39.6388C205.281 39.2509 204.917 39 204.501 39C204.085 39 203.72 39.2507 203.573 39.6386L202.701 41.9274L200.249 42.0466C199.834 42.0668 199.482 42.335 199.354 42.7292C199.225 43.1242 199.351 43.5474 199.676 43.807ZM203.153 43.4698C203.346 43.4605 203.532 43.3953 203.688 43.282C203.844 43.1688 203.964 43.0126 204.033 42.8325L204.501 41.6029L204.969 42.8326C205.037 43.0126 205.157 43.1688 205.313 43.282C205.47 43.3952 205.656 43.4605 205.848 43.4698L207.166 43.5338L206.138 44.3577C205.987 44.4784 205.875 44.6403 205.816 44.8234C205.756 45.0066 205.751 45.2032 205.802 45.3891L206.148 46.6582L205.045 45.9383C204.883 45.8326 204.694 45.7762 204.501 45.7761C204.308 45.7761 204.118 45.8323 203.957 45.9379L202.853 46.6582L203.199 45.3887C203.25 45.2029 203.245 45.0063 203.186 44.8232C203.126 44.6401 203.014 44.4783 202.863 44.3577L201.835 43.5338L203.153 43.4698ZM210.719 45.9191L212.632 47.4527L211.988 49.8152C211.879 50.2156 212.026 50.6318 212.362 50.8757C212.532 50.9993 212.736 51.0661 212.946 51.0664C213.134 51.0664 213.323 51.0121 213.49 50.9031L215.544 49.5623L217.598 50.9031C217.946 51.1302 218.388 51.1197 218.725 50.8754C219.062 50.6315 219.209 50.2153 219.099 49.8152L218.455 47.4527L220.369 45.9192C220.693 45.659 220.82 45.236 220.691 44.8419C220.563 44.447 220.211 44.1787 219.795 44.1586L217.343 44.0394L216.472 41.7507C216.324 41.3629 215.96 41.112 215.544 41.112C215.128 41.112 214.763 41.3627 214.616 41.7506L213.744 44.0394L211.292 44.1586C210.877 44.1787 210.525 44.447 210.397 44.8411C210.268 45.2357 210.394 45.6586 210.719 45.9191ZM214.196 45.5817C214.389 45.5724 214.575 45.5071 214.731 45.3939C214.887 45.2807 215.007 45.1245 215.076 44.9444L215.544 43.7148L216.012 44.9445C216.08 45.1245 216.2 45.2807 216.356 45.3939C216.512 45.5071 216.698 45.5724 216.891 45.5817L218.209 45.6457L217.181 46.4697C217.03 46.5903 216.918 46.7522 216.858 46.9354C216.799 47.1185 216.794 47.3151 216.845 47.501L217.191 48.7701L216.088 48.0502C215.926 47.9444 215.737 47.888 215.544 47.8879C215.35 47.8878 215.161 47.9441 215 48.0498L213.896 48.77L214.242 47.5008C214.293 47.3149 214.288 47.1184 214.228 46.9352C214.169 46.7521 214.057 46.5903 213.906 46.4696L212.878 45.6457L214.196 45.5817ZM188.633 45.9191L190.546 47.4527L189.903 49.8145C189.793 50.2152 189.94 50.6317 190.277 50.8758C190.446 50.9994 190.65 51.0662 190.86 51.0666C191.048 51.0666 191.237 51.0123 191.404 50.9032L193.458 49.5624L195.512 50.9032C195.86 51.1305 196.302 51.1199 196.639 50.8758C196.976 50.632 197.123 50.2157 197.014 49.8153L196.37 47.4528L198.283 45.9189C198.608 45.6587 198.734 45.2358 198.605 44.842C198.477 44.4471 198.125 44.1788 197.71 44.1587L195.258 44.0395L194.386 41.7508C194.238 41.363 193.874 41.1121 193.458 41.1121C193.042 41.1121 192.677 41.3631 192.53 41.7507L191.659 44.0395L189.207 44.1587C188.791 44.1788 188.44 44.4468 188.311 44.842C188.182 45.2365 188.309 45.6592 188.633 45.9191ZM192.11 45.5817C192.303 45.5724 192.489 45.5072 192.645 45.394C192.802 45.2808 192.921 45.1245 192.99 44.9444L193.458 43.7149L193.926 44.9445C193.994 45.1245 194.114 45.2807 194.27 45.3939C194.427 45.5071 194.613 45.5724 194.806 45.5817L196.123 45.6457L195.094 46.4699C194.944 46.5907 194.832 46.7525 194.773 46.9356C194.713 47.1187 194.708 47.3151 194.759 47.5009L195.105 48.77L194.002 48.0501C193.84 47.9444 193.651 47.888 193.458 47.8879C193.265 47.8879 193.076 47.9441 192.914 48.0497L191.811 48.7699L192.157 47.5007C192.207 47.3148 192.202 47.1183 192.143 46.9351C192.083 46.7519 191.971 46.5901 191.82 46.4695L190.793 45.6456L192.11 45.5817ZM196.497 58.0072C197.084 57.3973 197.447 56.57 197.447 55.6594C197.447 53.7896 195.922 52.2682 194.047 52.2682C192.171 52.2682 190.646 53.7895 190.646 55.6594C190.646 56.5703 191.009 57.3979 191.597 58.0078C190.072 58.6885 188.873 59.9952 188.353 61.6712C188.165 62.2743 188.273 62.9104 188.646 63.4162C189.02 63.9222 189.598 64.2123 190.231 64.2123H196.839V64.8256C196.839 66.273 198.02 67.4506 199.471 67.4506H209.531C210.982 67.4506 212.163 66.273 212.163 64.8256V64.2126H218.77C219.404 64.2126 219.981 63.9224 220.355 63.4165C220.729 62.9106 220.836 62.2745 220.649 61.6714C220.129 59.9954 218.929 58.6887 217.405 58.008C217.993 57.398 218.356 56.5705 218.356 55.6596C218.356 53.7898 216.83 52.2684 214.955 52.2684C213.08 52.2684 211.555 53.7897 211.555 55.6596C211.555 56.5702 211.917 57.3974 212.505 58.0073C211.765 58.3388 211.102 58.8191 210.556 59.4182C209.706 58.3405 208.581 57.5099 207.299 57.013C208.207 56.2295 208.782 55.0737 208.782 53.7857C208.782 51.4314 206.862 49.5159 204.501 49.5159C202.14 49.5159 200.219 51.4313 200.219 53.7857C200.219 55.0737 200.795 56.2295 201.702 57.013C200.421 57.5099 199.296 58.3405 198.445 59.4182C197.9 58.8191 197.237 58.3387 196.497 58.0072ZM194.047 53.8307C195.058 53.8307 195.88 54.651 195.88 55.6594C195.88 56.6678 195.058 57.4881 194.047 57.4881C193.035 57.4881 192.213 56.6678 192.213 55.6594C192.213 54.651 193.035 53.8307 194.047 53.8307ZM189.908 62.4892C189.87 62.4389 189.845 62.3803 189.835 62.3183C189.825 62.2564 189.83 62.193 189.849 62.1333C190.422 60.2893 192.109 59.0504 194.046 59.0504C195.455 59.0504 196.742 59.7043 197.569 60.8165C197.286 61.3991 197.078 62.0151 196.951 62.6498H190.231C190.168 62.6509 190.106 62.6369 190.05 62.6089C189.994 62.5809 189.945 62.5399 189.908 62.4892ZM213.121 55.6596C213.121 54.6513 213.944 53.8309 214.955 53.8309C215.966 53.8309 216.789 54.6512 216.789 55.6596C216.789 56.668 215.966 57.4883 214.955 57.4883C213.944 57.4883 213.121 56.6679 213.121 55.6596ZM214.955 59.0506C216.893 59.0506 218.58 60.2896 219.152 62.1336C219.172 62.1932 219.177 62.2567 219.167 62.3186C219.156 62.3805 219.132 62.4391 219.094 62.4895C219.057 62.5402 219.008 62.5813 218.952 62.6092C218.895 62.6372 218.833 62.6513 218.77 62.6502H212.051C211.923 62.0154 211.715 61.3994 211.432 60.8167C212.26 59.7045 213.546 59.0506 214.955 59.0506ZM204.501 51.0784C205.998 51.0784 207.215 52.2929 207.215 53.7857C207.215 55.2784 205.998 56.4929 204.501 56.4929C203.004 56.4929 201.786 55.2784 201.786 53.7857C201.786 52.2929 203.004 51.0784 204.501 51.0784ZM204.501 58.0552C207.63 58.0552 210.244 60.382 210.596 63.474V64.8256C210.596 65.4115 210.118 65.8883 209.53 65.8883H199.471C198.884 65.8883 198.406 65.4116 198.406 64.8257V63.474C198.758 60.382 201.371 58.0552 204.501 58.0552ZM227.517 70.7983C227.068 70.0505 225.225 67.83 220.374 70.6479L211.859 75.5941C211.455 75.8287 211.044 75.9978 210.617 76.1031C210.77 75.8465 210.89 75.5595 210.975 75.2442C211.414 73.6098 210.44 71.9033 208.758 71.3595C208.725 71.3487 208.69 71.3402 208.656 71.3338C206.211 70.8941 203.797 70.0237 201.857 69.3244C201.182 69.0811 200.545 68.8513 200.002 68.676C197.811 67.9669 195.834 68.8431 194.189 69.7933L187.877 73.4373L187.199 72.2418C186.932 71.7707 186.495 71.4313 185.97 71.2861C185.445 71.141 184.895 71.2078 184.423 71.4745L182.033 72.823C181.056 73.3748 180.711 74.6168 181.264 75.5918L188.288 87.9694C188.663 88.6291 189.354 89 190.065 89C190.404 89 190.748 88.9152 191.065 88.7368L193.454 87.3883C193.926 87.1217 194.267 86.6864 194.412 86.1624C194.558 85.6385 194.491 85.0906 194.223 84.6195L193.608 83.5345L195.018 82.7225L205.914 85.6339C206.532 85.7993 207.139 85.8818 207.733 85.8818C208.918 85.8818 210.05 85.5537 211.116 84.8993L226.57 75.4095C227.991 74.5372 228.442 72.3393 227.517 70.7983ZM192.902 85.7452C192.886 85.8045 192.859 85.8602 192.821 85.9088C192.783 85.9574 192.736 85.9981 192.682 86.0285L190.293 87.3771C190.239 87.4073 190.18 87.4266 190.119 87.4339C190.058 87.4411 189.995 87.4362 189.936 87.4195C189.877 87.4034 189.821 87.3757 189.772 87.338C189.723 87.3003 189.682 87.2534 189.652 87.1999L182.628 74.8221C182.597 74.7685 182.578 74.7095 182.571 74.6484C182.563 74.5873 182.568 74.5254 182.585 74.4662C182.601 74.4068 182.629 74.3512 182.667 74.3025C182.704 74.2539 182.752 74.2132 182.805 74.1828L185.194 72.8343C185.264 72.795 185.343 72.7743 185.423 72.7743C185.466 72.7743 185.509 72.7802 185.551 72.792C185.611 72.808 185.667 72.8357 185.715 72.8734C185.764 72.9111 185.805 72.958 185.835 73.0115L191.864 83.6341L191.865 83.6358L191.865 83.637L192.86 85.3891C192.921 85.497 192.936 85.6235 192.902 85.7452ZM225.748 74.0791L210.295 83.5688C209.076 84.3172 207.738 84.5044 206.319 84.1247L195.11 81.1295C195.011 81.1029 194.907 81.0961 194.805 81.1095C194.703 81.1229 194.605 81.1562 194.516 81.2075L192.836 82.1746L188.649 74.7972L194.974 71.1455C196.388 70.3288 197.918 69.6442 199.519 70.1624C200.037 70.3297 200.633 70.5447 201.324 70.7939C203.305 71.5079 205.766 72.3952 208.321 72.8613C209.195 73.1672 209.685 74.0097 209.461 74.84C209.168 75.9322 208.254 76.0688 207.526 75.9856C206.273 75.7287 205.082 75.3896 203.822 75.0306C203.223 74.8602 202.605 74.684 201.969 74.514C201.768 74.4604 201.554 74.4885 201.374 74.5921C201.194 74.6957 201.063 74.8663 201.009 75.0665C200.955 75.2666 200.984 75.4799 201.087 75.6593C201.191 75.8387 201.362 75.9697 201.563 76.0233C202.187 76.1899 202.799 76.3643 203.391 76.5331C204.692 76.9034 205.92 77.2532 207.243 77.5229C207.248 77.524 207.253 77.5243 207.258 77.5252C207.263 77.5262 207.268 77.5278 207.274 77.5287L208.332 77.7003C209.923 77.9543 211.334 77.7069 212.647 76.9446L221.162 71.9983C223.599 70.5834 225.472 70.4349 226.172 71.6014C226.654 72.4036 226.441 73.6542 225.748 74.0791ZM185.969 75.3681C185.986 75.4792 185.982 75.5926 185.955 75.7018C185.928 75.8109 185.88 75.9137 185.813 76.0042C185.746 76.0947 185.662 76.171 185.565 76.2288C185.468 76.2867 185.361 76.3248 185.249 76.3411C185.138 76.3573 185.024 76.3514 184.915 76.3236C184.806 76.2958 184.703 76.2466 184.613 76.1791C184.523 76.1115 184.447 76.0268 184.39 75.9298C184.333 75.8329 184.296 75.7256 184.281 75.6142C184.25 75.392 184.309 75.1669 184.444 74.9877C184.58 74.8085 184.78 74.6898 185.003 74.6574C185.225 74.625 185.452 74.6814 185.632 74.8145C185.813 74.9476 185.934 75.1466 185.969 75.3681Z" fill="black"/>
</svg>
