<svg width="141" height="152" viewBox="0 0 141 152" fill="none" xmlns="http://www.w3.org/2000/svg">
<path d="M8.28895 0.582001C-6.21539 50.664 -1.57005 104.351 21.3212 151.197L140.96 92.736C132.584 75.594 130.885 55.95 136.192 37.624L8.28895 0.582001Z" fill="url(#paint0_linear_5_36)"/>
<path d="M58.9455 72.72C53.2084 72.72 48.5606 67.618 48.5606 61.32C48.5606 55.022 53.2084 50 58.9455 50C64.6826 50 69.3304 55.022 69.3304 61.32C69.3304 67.618 64.6826 72.72 58.9455 72.72ZM58.9455 51.515C54.0072 51.515 50.013 55.899 50.013 61.32C50.013 66.741 54.0072 71.206 58.9455 71.206C63.8838 71.206 67.878 66.821 67.878 61.4C67.878 55.979 63.9564 51.515 58.9455 51.515Z" fill="#231F20"/>
<path d="M58.9455 94.085C58.8729 94.085 57.13 94.006 54.7335 93.766C52.5548 93.527 49.2142 93.049 46.3093 92.252C43.5497 91.375 40.3544 89.462 39.6282 88.106C38.1757 85.555 39.6282 82.765 40.1365 81.808C43.4045 75.909 53.4989 72.242 53.862 72.162L54.2251 72.003L59.0908 76.069L63.6659 72.003L64.029 72.162C64.2469 72.242 68.459 73.757 72.3805 76.387L71.6543 77.663C68.459 75.511 65.0457 74.076 63.9564 73.597L59.8896 77.185L62.4314 85.476L59.3812 90.817L56.3311 85.476L58.2919 77.105L53.9346 73.438C52.1917 74.315 43.9128 77.663 41.2985 82.526C40.2091 84.519 40.0639 86.034 40.7175 87.229C41.2258 88.106 43.8402 89.94 46.6725 90.817C49.5047 91.694 52.7001 92.172 54.8787 92.252C57.2752 92.491 58.9455 92.571 58.9455 92.571C58.9455 92.571 63.5207 92.411 68.1685 91.455L68.3863 92.89C63.7386 93.926 59.0181 94.085 58.9455 94.085ZM57.7836 85.316L59.3086 88.027L60.8337 85.236L59.0908 79.497L57.7836 85.316ZM74.4139 88.505C72.5984 88.505 71.0733 86.911 71.0733 84.838C71.0733 82.765 72.5258 81.171 74.4139 81.171C76.3021 81.171 77.7545 82.765 77.7545 84.838C77.6819 86.911 76.2295 88.505 74.4139 88.505ZM74.4139 82.765C73.3246 82.765 72.5258 83.722 72.5258 84.838C72.5258 86.034 73.3972 86.911 74.4139 86.911C75.5033 86.911 76.3021 85.954 76.3021 84.838C76.3021 83.801 75.4306 82.765 74.4139 82.765Z" fill="#231F20"/>
<path d="M76.6652 95.6H72.4532L71.7996 93.527C71.5091 93.448 71.2912 93.288 71.0008 93.208L69.1126 94.325L66.0625 91.056L67.0066 89.063C66.8613 88.824 66.7887 88.505 66.6435 88.186L64.61 87.469V82.845L66.4982 82.127C66.5708 81.808 66.7161 81.569 66.7887 81.25L65.772 79.178L68.7495 75.829L70.565 76.866C70.7829 76.706 71.0734 76.627 71.3639 76.467L72.0175 74.235H76.2295L76.8831 76.308C77.1736 76.387 77.3915 76.547 77.6819 76.627L79.5701 75.511L82.5476 78.779L81.6035 80.772C81.7488 81.011 81.8214 81.33 81.9666 81.649L84 82.366V86.99L82.1119 87.708C82.0392 88.027 81.894 88.266 81.8214 88.585L82.8381 90.657L79.9332 94.085L78.1177 93.049C77.8272 93.208 77.6093 93.288 77.3188 93.448L76.6652 95.6ZM73.3973 94.085H75.6485L76.2295 92.172L76.5926 92.013C77.0284 91.853 77.3915 91.694 77.8272 91.455L78.1903 91.215L79.7154 92.092L81.2404 90.418L80.3689 88.664L80.5142 88.345C80.7321 87.867 80.8773 87.469 81.0225 86.99L81.0952 86.592L82.7655 85.954V83.483L81.0225 82.845L80.8773 82.446C80.7321 81.968 80.5868 81.569 80.3689 81.091L80.1511 80.772L80.9499 79.098L79.4249 77.504L77.7546 78.38L77.3915 78.221C76.9557 77.982 76.5926 77.822 76.1569 77.663L75.8664 77.583L75.2854 75.75H73.0342L72.4532 77.663L72.0901 77.822C71.6543 77.982 71.2186 78.221 70.8555 78.38L70.6376 78.62L69.1126 77.663L67.5875 79.337L68.459 81.091L68.3138 81.41C68.0959 81.808 67.9506 82.287 67.8054 82.765L67.7328 83.164L66.0625 83.801V86.273L67.8054 86.911L67.9506 87.309C68.0959 87.787 68.3138 88.266 68.459 88.664L68.6769 89.063L67.8054 90.737L69.3305 92.411L70.9281 91.455L71.2186 91.614C71.5817 91.853 72.0175 92.013 72.4532 92.172L72.8163 92.252L73.3973 94.085ZM74.414 88.505C72.5984 88.505 71.0734 86.911 71.0734 84.838C71.0734 82.765 72.5258 81.171 74.414 81.171C76.3021 81.171 77.7546 82.765 77.7546 84.838C77.6819 86.911 76.2295 88.505 74.414 88.505ZM74.414 82.765C73.3246 82.765 72.5258 83.722 72.5258 84.838C72.5258 86.034 73.3973 86.911 74.414 86.911C75.5033 86.911 76.3021 85.954 76.3021 84.838C76.3021 83.801 75.4307 82.765 74.414 82.765Z" fill="#231F20"/>
<defs>
<linearGradient id="paint0_linear_5_36" x1="210" y1="-151" x2="210" y2="269" gradientUnits="userSpaceOnUse">
<stop stop-color="#1890FF" stop-opacity="0"/>
<stop offset="1" stop-color="#1890FF"/>
</linearGradient>
</defs>
</svg>
