<svg width="154" height="156" viewBox="0 0 154 156" fill="none" xmlns="http://www.w3.org/2000/svg">
<path d="M68.0945 77.5679C48.5078 77.5679 32.6401 60.1491 32.6401 38.6479C32.6401 17.1466 48.5078 0 68.0945 0C87.6812 0 103.549 17.1466 103.549 38.6479C103.549 60.1491 87.6812 77.5679 68.0945 77.5679ZM68.0945 5.17119C51.2351 5.17119 37.5988 20.1404 37.5988 38.6479C37.5988 57.1553 51.2351 72.3967 68.0945 72.3967C84.9539 72.3967 98.5903 57.4275 98.5903 38.92C98.5903 20.4126 85.2019 5.17119 68.0945 5.17119Z" fill="#231F20"/>
<path d="M68.0947 150.509C67.8467 150.509 61.8963 150.237 53.7146 149.42C46.2766 148.604 34.8717 146.971 24.9544 144.249C15.5329 141.255 4.62387 134.723 2.14454 130.096C-2.81412 121.387 2.14454 111.861 3.88007 108.595C15.037 88.4545 49.4997 75.9348 50.7394 75.6626L51.979 75.1183L68.5905 88.9989L84.2103 75.1183L85.45 75.6626C86.1938 75.9348 100.574 81.106 113.962 90.0875L111.483 94.4422C100.574 87.0937 88.921 82.1947 85.202 80.5616L71.3178 92.8092L79.9954 121.115L69.5823 139.35L59.1691 121.115L65.8633 92.537L50.9873 80.0173C45.0369 83.0112 16.7726 94.4422 7.84699 111.044C4.128 117.849 3.63213 123.02 5.86353 127.102C7.59906 130.096 16.5246 136.356 26.194 139.35C35.8634 142.344 46.7724 143.977 54.2104 144.249C62.3922 145.065 68.0947 145.338 68.0947 145.338C68.0947 145.338 83.7144 144.793 99.5821 141.527L100.326 146.426C84.4582 149.965 68.3426 150.509 68.0947 150.509ZM64.1277 120.57L69.3343 129.824L74.5409 120.298L68.5905 100.702L64.1277 120.57ZM120.904 131.457C114.706 131.457 109.499 126.014 109.499 118.937C109.499 111.861 114.458 106.418 120.904 106.418C127.351 106.418 132.309 111.861 132.309 118.937C132.061 126.014 127.103 131.457 120.904 131.457ZM120.904 111.861C117.185 111.861 114.458 115.127 114.458 118.937C114.458 123.02 117.433 126.014 120.904 126.014C124.623 126.014 127.351 122.748 127.351 118.937C127.351 115.399 124.375 111.861 120.904 111.861Z" fill="#231F20"/>
<path d="M128.591 155.68H114.211L111.979 148.604C110.987 148.332 110.244 147.787 109.252 147.515L102.806 151.325L92.3925 140.167L95.6156 133.362C95.1198 132.546 94.8718 131.457 94.376 130.368L87.4338 127.919V112.133L93.8801 109.684C94.128 108.595 94.6239 107.779 94.8718 106.69L91.4008 99.6135L101.566 88.1824L107.764 91.7206C108.508 91.1763 109.5 90.9041 110.492 90.3597L112.723 82.739H127.103L129.334 89.8154C130.326 90.0876 131.07 90.6319 132.062 90.9041L138.508 87.0937L148.673 98.2526L145.45 105.057C145.946 105.873 146.194 106.962 146.69 108.051L153.632 110.5V126.286L147.186 128.735C146.938 129.824 146.442 130.641 146.194 131.729L149.665 138.806L139.748 150.509L133.549 146.971C132.558 147.515 131.814 147.787 130.822 148.332L128.591 155.68ZM117.434 150.509H125.12L127.103 143.977L128.343 143.433C129.83 142.888 131.07 142.344 132.558 141.527L133.797 140.711L139.004 143.705L144.21 137.989L141.235 132.001L141.731 130.913C142.475 129.28 142.971 127.919 143.467 126.286L143.715 124.925L149.417 122.748V114.311L143.467 112.133L142.971 110.772C142.475 109.139 141.979 107.779 141.235 106.146L140.491 105.057L143.219 99.3413L138.012 93.8979L132.31 96.8918L131.07 96.3474C129.582 95.5309 128.343 94.9866 126.855 94.4423L125.863 94.1701L123.88 87.9102H116.194L114.211 94.4423L112.971 94.9866C111.483 95.5309 109.996 96.3474 108.756 96.8918L108.012 97.7083L102.806 94.4423L97.5991 100.158L100.574 106.146L100.078 107.234C99.3346 108.595 98.8387 110.228 98.3429 111.861L98.0949 113.222L92.3925 115.399V123.836L98.3429 126.014L98.8387 127.375C99.3346 129.008 100.078 130.641 100.574 132.001L101.318 133.362L98.3429 139.078L103.549 144.793L109.004 141.527L109.996 142.072C111.235 142.888 112.723 143.433 114.211 143.977L115.45 144.249L117.434 150.509ZM120.905 131.457C114.706 131.457 109.5 126.014 109.5 118.937C109.5 111.861 114.459 106.418 120.905 106.418C127.351 106.418 132.31 111.861 132.31 118.937C132.062 126.014 127.103 131.457 120.905 131.457ZM120.905 111.861C117.186 111.861 114.459 115.127 114.459 118.937C114.459 123.02 117.434 126.014 120.905 126.014C124.624 126.014 127.351 122.748 127.351 118.937C127.351 115.399 124.376 111.861 120.905 111.861Z" fill="#231F20"/>
</svg>
