<svg width="142" height="146" viewBox="0 0 142 146" fill="none" xmlns="http://www.w3.org/2000/svg">
<path d="M121.793 145.881C143.306 100.455 147.812 48.819 134.493 0.352997L5.01401 35.935C9.81601 53.411 8.19099 72.029 0.43399 88.409L121.793 145.881Z" fill="url(#paint0_linear_5_32)"/>
<path fill-rule="evenodd" clip-rule="evenodd" d="M71.757 68.345C70.179 67.035 68.188 66.319 66.132 66.322H60.783C58.454 66.323 56.221 67.242 54.574 68.879C52.927 70.515 52.001 72.734 52 75.048V83.021C52.014 83.211 52.1 83.389 52.241 83.518C52.382 83.648 52.566 83.72 52.758 83.72C52.95 83.72 53.135 83.648 53.276 83.518C53.416 83.389 53.502 83.211 53.516 83.021V75.048C53.517 73.133 54.283 71.297 55.645 69.943C57.008 68.59 58.856 67.829 60.783 67.828H66.13C67.826 67.828 69.384 68.403 70.621 69.37C68.755 71.307 67.715 73.886 67.717 76.567V86.246C67.717 86.446 67.797 86.638 67.94 86.779C68.082 86.921 68.275 87 68.477 87C68.678 87 68.871 86.921 69.014 86.779C69.156 86.638 69.236 86.446 69.236 86.246V76.567C69.237 74.2 70.184 71.931 71.868 70.257C73.551 68.583 75.835 67.642 78.217 67.639H84.713C87.439 67.639 89.883 68.847 91.531 70.752C91.553 70.872 91.605 70.984 91.681 71.079C91.757 71.174 91.855 71.249 91.967 71.298C93.058 72.775 93.701 74.597 93.701 76.567V86.246C93.701 86.445 93.781 86.637 93.923 86.778C94.065 86.92 94.258 86.999 94.459 86.999C94.66 86.999 94.853 86.92 94.995 86.778C95.137 86.637 95.217 86.445 95.217 86.246V76.567C95.22 74.456 94.575 72.394 93.369 70.657C94.65 69.651 96.235 69.104 97.868 69.106H103.215C105.142 69.106 106.991 69.867 108.354 71.221C109.717 72.575 110.483 74.411 110.484 76.326V84.299C110.498 84.489 110.584 84.667 110.724 84.797C110.865 84.926 111.05 84.999 111.242 84.999C111.434 84.999 111.618 84.926 111.759 84.797C111.9 84.667 111.986 84.489 112 84.299V76.326C111.999 74.012 111.073 71.793 109.426 70.157C107.779 68.521 105.546 67.601 103.217 67.6H97.868C95.89 67.597 93.97 68.26 92.421 69.48C91.438 68.423 90.246 67.58 88.92 67.004C87.593 66.428 86.161 66.131 84.713 66.133H78.217C75.875 66.131 73.601 66.91 71.757 68.345ZM91.211 75.814H87.963C87.864 75.813 87.765 75.833 87.673 75.87C87.581 75.908 87.497 75.964 87.426 76.034C87.356 76.104 87.3 76.187 87.262 76.278C87.224 76.37 87.205 76.468 87.205 76.567V83.021C87.219 83.211 87.305 83.389 87.446 83.518C87.587 83.648 87.771 83.72 87.963 83.72C88.155 83.72 88.34 83.648 88.481 83.518C88.621 83.389 88.707 83.211 88.721 83.021V77.32H91.211C91.403 77.306 91.581 77.221 91.712 77.081C91.843 76.941 91.915 76.758 91.915 76.567C91.915 76.376 91.843 76.193 91.712 76.053C91.581 75.913 91.403 75.828 91.211 75.814ZM71.724 77.32H74.213V83.021C74.228 83.211 74.314 83.389 74.454 83.518C74.595 83.648 74.78 83.72 74.972 83.72C75.163 83.72 75.348 83.648 75.489 83.518C75.629 83.389 75.716 83.211 75.73 83.021V76.567C75.73 76.468 75.711 76.37 75.673 76.278C75.635 76.187 75.579 76.104 75.508 76.034C75.438 75.964 75.354 75.908 75.262 75.87C75.17 75.833 75.071 75.813 74.972 75.814H71.726C71.525 75.814 71.332 75.893 71.19 76.034C71.047 76.175 70.967 76.367 70.967 76.567C70.967 76.767 71.047 76.958 71.19 77.1C71.332 77.241 71.525 77.32 71.726 77.32H71.724ZM108.566 75.573H105.893C105.793 75.573 105.694 75.592 105.602 75.63C105.51 75.667 105.426 75.723 105.356 75.793C105.285 75.863 105.23 75.946 105.192 76.038C105.154 76.129 105.134 76.227 105.134 76.326V81.641C105.134 81.841 105.214 82.032 105.357 82.173C105.499 82.315 105.692 82.394 105.893 82.394C106.094 82.394 106.287 82.315 106.429 82.173C106.571 82.032 106.651 81.841 106.651 81.641V77.079H108.566C108.767 77.079 108.96 77 109.102 76.859C109.244 76.718 109.324 76.526 109.324 76.326C109.324 76.126 109.244 75.935 109.102 75.793C108.96 75.652 108.767 75.573 108.566 75.573ZM55.434 75.801H57.349V80.362C57.363 80.553 57.449 80.73 57.59 80.86C57.731 80.99 57.915 81.062 58.107 81.062C58.299 81.062 58.484 80.99 58.625 80.86C58.765 80.73 58.851 80.553 58.866 80.362V75.048C58.866 74.949 58.846 74.851 58.808 74.759C58.77 74.668 58.715 74.585 58.644 74.515C58.574 74.445 58.49 74.389 58.398 74.351C58.306 74.314 58.207 74.294 58.107 74.295H55.434C55.233 74.295 55.04 74.374 54.898 74.515C54.756 74.656 54.676 74.848 54.676 75.048C54.676 75.248 54.756 75.439 54.898 75.58C55.04 75.722 55.233 75.801 55.434 75.801ZM100.541 54.31C99.726 54.289 98.914 54.431 98.155 54.727C97.395 55.022 96.703 55.466 96.119 56.032C95.535 56.598 95.071 57.274 94.754 58.021C94.437 58.767 94.274 59.57 94.274 60.38C94.275 61.191 94.438 61.993 94.756 62.74C95.073 63.486 95.538 64.162 96.122 64.728C96.707 65.293 97.399 65.736 98.159 66.031C98.919 66.327 99.73 66.468 100.546 66.446C102.138 66.404 103.65 65.746 104.761 64.612C105.872 63.479 106.494 61.958 106.493 60.376C106.493 58.794 105.87 57.274 104.758 56.141C103.647 55.008 102.134 54.351 100.541 54.31ZM63.457 53.032C61.837 53.033 60.283 53.673 59.138 54.811C57.992 55.949 57.348 57.492 57.347 59.102C57.347 60.302 57.705 61.476 58.377 62.474C59.048 63.472 60.002 64.25 61.119 64.71C62.235 65.169 63.463 65.289 64.648 65.055C65.834 64.821 66.922 64.243 67.777 63.394C68.631 62.545 69.213 61.464 69.449 60.286C69.684 59.109 69.563 57.888 69.101 56.779C68.639 55.67 67.855 54.722 66.851 54.055C65.846 53.388 64.665 53.032 63.457 53.032ZM100.539 55.817C101.448 55.816 102.337 56.083 103.094 56.584C103.85 57.086 104.439 57.798 104.788 58.633C105.136 59.467 105.228 60.385 105.051 61.271C104.874 62.157 104.436 62.971 103.793 63.61C103.151 64.249 102.332 64.684 101.44 64.86C100.549 65.036 99.624 64.946 98.785 64.6C97.945 64.254 97.227 63.669 96.722 62.918C96.217 62.166 95.948 61.283 95.948 60.38C95.949 59.17 96.433 58.01 97.293 57.155C98.154 56.299 99.322 55.818 100.539 55.817ZM81.465 50C79.542 50.001 77.697 50.761 76.337 52.112C74.977 53.464 74.212 55.296 74.211 57.207C74.257 59.089 75.041 60.878 76.396 62.193C77.752 63.508 79.571 64.244 81.465 64.244C83.36 64.244 85.179 63.508 86.534 62.193C87.89 60.878 88.674 59.089 88.719 57.207C88.719 55.296 87.954 53.463 86.594 52.112C85.234 50.76 83.389 50.001 81.465 50ZM63.457 54.538C64.645 54.582 65.77 55.082 66.596 55.933C67.421 56.784 67.882 57.919 67.882 59.101C67.882 60.282 67.421 61.418 66.596 62.269C65.77 63.12 64.645 63.62 63.457 63.663C62.268 63.62 61.143 63.12 60.317 62.269C59.492 61.418 59.031 60.282 59.031 59.101C59.031 57.919 59.492 56.784 60.317 55.933C61.143 55.082 62.268 54.582 63.457 54.538ZM81.465 51.507C82.601 51.506 83.711 51.84 84.655 52.467C85.599 53.093 86.335 53.984 86.77 55.026C87.205 56.068 87.318 57.215 87.097 58.321C86.876 59.428 86.329 60.444 85.526 61.242C84.723 62.039 83.7 62.583 82.587 62.802C81.473 63.022 80.319 62.909 79.27 62.477C78.221 62.046 77.325 61.314 76.694 60.376C76.064 59.438 75.727 58.335 75.728 57.207C75.728 55.695 76.333 54.246 77.409 53.177C78.485 52.108 79.944 51.507 81.465 51.507Z" fill="#040804"/>
<defs>
<linearGradient id="paint0_linear_5_32" x1="-68" y1="-154" x2="-68" y2="266" gradientUnits="userSpaceOnUse">
<stop stop-color="#FFCE36"/>
<stop offset="1" stop-color="#FFCE36" stop-opacity="0"/>
</linearGradient>
</defs>
</svg>
