<svg width="162" height="160" viewBox="0 0 162 160" fill="none" xmlns="http://www.w3.org/2000/svg">
<path d="M100.9 0.278595C54.5402 24.1388 18.714 64.3922 0.392303 113.207L123.985 159.595C130.789 141.467 144.094 126.518 161.311 117.657L100.9 0.278595Z" fill="url(#paint0_linear_5_35)"/>
<path d="M106 104.724C106 105.734 105.38 106.645 104.436 107.003C91.947 111.726 84.4289 111.892 72.1237 106.865C71.4418 106.587 71 105.919 71.0001 105.183C71.0001 101.705 73.0628 98.655 76.0449 97.725L83.1731 95.501C83.3237 95.454 83.4784 95.429 83.6348 95.429C84.6461 95.429 85.4228 96.296 85.8916 97.192C86.4302 98.221 87.426 98.913 88.565 98.913C89.705 98.913 90.701 98.221 91.24 97.192C91.709 96.296 92.486 95.429 93.497 95.429C93.652 95.429 93.808 95.454 93.959 95.501L101.086 97.725C104.068 98.655 106 101.247 106 104.724Z" stroke="black" stroke-miterlimit="10"/>
<path d="M91.666 92.029V95.429C91.666 97.353 90.277 98.913 88.565 98.913C86.8534 98.913 85.4659 97.353 85.4659 95.429V92.029C86.4207 92.475 87.467 92.721 88.565 92.721C89.663 92.721 90.711 92.475 91.666 92.029ZM98.898 77.627V80.172C98.627 79.97 98.301 79.852 97.951 79.852H96.659V76.6598H98.038C98.513 76.6598 98.898 77.093 98.898 77.627ZM80.4715 76.6598V79.852H79.1799C78.8299 79.852 78.5039 79.97 78.2325 80.172V77.627C78.2325 77.093 78.6181 76.6598 79.0939 76.6598H80.4715Z" stroke="black" stroke-miterlimit="10"/>
<path d="M80.575 85.077H79.18C78.2293 85.077 77.4581 84.211 77.4581 83.142V81.787C77.4581 81.112 77.7659 80.518 78.2326 80.172C78.504 79.97 78.83 79.852 79.18 79.852H80.4716V83.626C80.4716 84.12 80.5063 84.605 80.575 85.077ZM99.673 81.787V83.142C99.673 84.211 98.902 85.077 97.951 85.077H96.556C96.624 84.605 96.659 84.12 96.659 83.626V79.852H97.951C98.301 79.852 98.627 79.97 98.898 80.172C99.366 80.517 99.673 81.112 99.673 81.787Z" stroke="black" stroke-miterlimit="10"/>
<path d="M96.659 76.6598V83.626C96.659 84.12 96.624 84.605 96.556 85.077C96.107 88.229 94.215 90.841 91.666 92.029C90.711 92.475 89.663 92.721 88.565 92.721C87.467 92.721 86.4207 92.475 85.4659 92.029C82.9166 90.841 81.0243 88.23 80.575 85.077C80.5063 84.605 80.4716 84.12 80.4716 83.626V76.6598C86.6297 79.567 90.168 79.554 96.659 76.6598Z" stroke="black" stroke-miterlimit="10"/>
<path d="M95.084 72.504L93.464 71.4543C93.52 71.1178 93.551 70.7719 93.551 70.4177C93.551 70.0635 93.52 69.7176 93.464 69.381L95.084 68.3314C95.495 68.0636 95.636 67.4723 95.399 67.0093L94.577 65.4083C94.338 64.9463 93.812 64.7873 93.4 65.0541L91.781 66.1056C91.314 65.6566 90.775 65.3014 90.184 65.0671V62.9678C90.184 62.4332 89.798 62 89.322 62H87.678C87.202 62 86.8162 62.4332 86.8162 62.9678V65.0671C86.2254 65.3014 85.6859 65.6566 85.2192 66.1056L83.6 65.0541C83.1879 64.7873 82.6617 64.9463 82.4234 65.4083L81.6009 67.0093C81.3635 67.4714 81.505 68.0636 81.9162 68.3314L83.5354 69.381C83.48 69.7176 83.4494 70.0635 83.4494 70.4177C83.4494 70.7719 83.48 71.1178 83.5354 71.4543L81.9162 72.504C81.505 72.7717 81.3635 73.363 81.6009 73.826L82.4234 75.4261C82.6617 75.8891 83.1879 76.0481 83.6 75.7812L85.2192 74.7297C85.6859 75.1788 86.2254 75.5339 86.8162 75.7682V76.6598C88.131 77.836 88.869 77.788 90.184 76.6598V75.7682C90.775 75.5339 91.314 75.1788 91.781 74.7297L93.4 75.7812C93.812 76.0481 94.338 75.8891 94.577 75.4261L95.399 73.826C95.636 73.364 95.495 72.7717 95.084 72.504ZM88.5 72.3097C87.57 72.3097 86.8162 71.4627 86.8162 70.4177C86.8162 69.3727 87.57 68.5257 88.5 68.5257C89.43 68.5257 90.184 69.3727 90.184 70.4177C90.184 71.4627 89.43 72.3097 88.5 72.3097Z" stroke="black" stroke-miterlimit="10"/>
<defs>
<linearGradient id="paint0_linear_5_35" x1="197" y1="-23" x2="197" y2="397" gradientUnits="userSpaceOnUse">
<stop stop-color="#5CD38C"/>
<stop offset="1" stop-color="#007F99" stop-opacity="0.828125"/>
</linearGradient>
</defs>
</svg>
