<svg width="166" height="165" viewBox="0 0 166 165" fill="none" xmlns="http://www.w3.org/2000/svg">
<path d="M165.389 119.322C146.378 66.9711 107.35 24.3163 56.891 0.741089L0.460007 121.523C18.886 130.132 33.138 145.708 40.08 164.825L165.389 119.322Z" fill="url(#paint0_linear_5_33)"/>
<path d="M75.536 78.6935L68.601 70.6888C67.801 69.7663 66.336 69.7704 65.407 70.7011L59.704 76.4141C58.007 78.1134 57.521 80.6368 58.503 82.66C64.369 94.806 74.165 104.614 86.303 110.497C88.324 111.479 90.845 110.993 92.543 109.294L98.299 103.528C99.232 102.595 99.234 101.121 98.303 100.322L90.267 93.424C89.427 92.702 88.121 92.797 87.278 93.641L84.482 96.441C84.339 96.591 84.151 96.69 83.946 96.723C83.741 96.755 83.531 96.72 83.349 96.622C78.778 93.99 74.987 90.194 72.361 85.62C72.262 85.437 72.227 85.227 72.259 85.022C72.292 84.817 72.391 84.628 72.541 84.484L75.329 81.695C76.174 80.8459 76.266 79.534 75.536 78.6915V78.6935Z" stroke="black" stroke-linecap="round" stroke-linejoin="round"/>
<defs>
<linearGradient id="paint0_linear_5_33" x1="15" y1="-3.00001" x2="79" y2="287" gradientUnits="userSpaceOnUse">
<stop stop-color="#5CD38C"/>
<stop offset="1" stop-color="#FFA647" stop-opacity="0.87"/>
</linearGradient>
</defs>
</svg>
