<svg width="105" height="105" viewBox="0 0 105 105" fill="none" xmlns="http://www.w3.org/2000/svg">
<path d="M45.1986 23.4158L28.1146 3.69673C26.1451 1.42437 22.5344 1.43447 20.2467 3.72703L6.1977 17.8005C2.01632 21.9867 0.819479 28.2029 3.23842 33.187C17.6895 63.1063 41.8204 87.2697 71.7211 101.762C76.7004 104.181 82.9118 102.984 87.0932 98.7977L101.274 84.5929C103.571 82.2953 103.576 78.6645 101.284 76.6952L81.4877 59.7029C79.4173 57.9254 76.2004 58.1577 74.1249 60.2382L67.2367 67.1361C66.8841 67.5056 66.4199 67.7493 65.9154 67.8295C65.4109 67.9098 64.894 67.8223 64.4441 67.5805C53.1849 61.0971 43.8452 51.7458 37.3762 40.4787C37.134 40.028 37.0462 39.5103 37.1265 39.005C37.2068 38.4997 37.4506 38.0346 37.8206 37.6812L44.6886 30.8086C46.7692 28.718 46.9964 25.4862 45.1986 23.4107V23.4158Z" stroke="black" stroke-width="3" stroke-linecap="round" stroke-linejoin="round"/>
</svg>
