<svg width="156" height="100" viewBox="0 0 156 100" fill="none" xmlns="http://www.w3.org/2000/svg">
<path fill-rule="evenodd" clip-rule="evenodd" d="M51.3682 49.5807C47.2666 46.0404 42.0891 44.1044 36.7436 44.1123H22.8358C16.7802 44.1153 10.9735 46.601 6.69162 51.0233C2.40971 55.4456 0.00287811 61.4427 0 67.6968V89.2453C0.0369569 89.7592 0.260689 90.2396 0.62631 90.5902C0.991932 90.9408 1.4724 91.1357 1.97132 91.1357C2.47023 91.1357 2.9507 90.9408 3.31632 90.5902C3.68194 90.2396 3.90567 89.7592 3.94263 89.2453V67.6968C3.94407 62.5222 5.93505 57.5599 9.47789 53.9009C13.0207 50.2419 17.8254 48.1857 22.8358 48.1842H36.7381C41.1478 48.1842 45.1991 49.7378 48.414 52.3514C43.563 57.587 40.8585 64.5559 40.8654 71.8024V97.9612C40.8654 98.502 41.0734 99.0205 41.4436 99.4029C41.8138 99.7852 42.3159 100 42.8394 100C43.363 100 43.8651 99.7852 44.2353 99.4029C44.6055 99.0205 44.8135 98.502 44.8135 97.9612V71.8024C44.8164 65.4059 47.2772 59.2721 51.6555 54.7481C56.0339 50.2241 61.9718 47.6797 68.1651 47.6738H85.0544C92.1413 47.6738 98.4952 50.9381 102.78 56.0868C102.839 56.4095 102.973 56.7124 103.171 56.9695C103.368 57.2265 103.624 57.4299 103.915 57.5619C106.75 61.5553 108.422 66.4797 108.422 71.8024V97.9612C108.422 98.5012 108.63 99.0191 109 99.4009C109.369 99.7827 109.871 99.9972 110.394 99.9972C110.916 99.9972 111.418 99.7827 111.788 99.4009C112.157 99.0191 112.365 98.5012 112.365 97.9612V71.8024C112.373 66.097 110.696 60.5249 107.559 55.8288C110.889 53.1095 115.011 51.633 119.256 51.6391H133.159C138.17 51.6391 142.976 53.6947 146.52 57.3539C150.064 61.0131 152.056 65.9762 152.057 71.1517V92.7003C152.094 93.2142 152.318 93.6946 152.684 94.0452C153.049 94.3958 153.53 94.5906 154.029 94.5906C154.528 94.5906 155.008 94.3958 155.374 94.0452C155.739 93.6946 155.963 93.2142 156 92.7003V71.1517C155.997 64.8976 153.59 58.9006 149.308 54.4783C145.026 50.056 139.22 47.5702 133.164 47.5672H119.256C114.115 47.5599 109.123 49.351 105.093 52.6487C102.539 49.7929 99.4403 47.5147 95.9914 45.9576C92.5424 44.4005 88.8185 43.5984 85.0544 43.6019H68.1651C62.0761 43.5971 56.1615 45.7024 51.3682 49.5807ZM101.949 69.7664H93.5044C93.2453 69.7657 92.9887 69.8178 92.7492 69.9199C92.5097 70.0219 92.2921 70.1719 92.1089 70.3611C91.9257 70.5503 91.7805 70.775 91.6817 71.0223C91.5829 71.2697 91.5324 71.5348 91.5331 71.8024V89.2453C91.5701 89.7592 91.7938 90.2396 92.1594 90.5902C92.525 90.9408 93.0055 91.1357 93.5044 91.1357C94.0033 91.1357 94.4838 90.9408 94.8494 90.5902C95.215 90.2396 95.4388 89.7592 95.4757 89.2453V73.8383H101.949C102.447 73.8001 102.912 73.5691 103.251 73.1915C103.591 72.8139 103.779 72.3176 103.779 71.8024C103.779 71.2871 103.591 70.7908 103.251 70.4132C102.912 70.0356 102.447 69.8046 101.949 69.7664ZM51.2813 73.8383H57.7546V89.2453C57.7916 89.7592 58.0153 90.2396 58.381 90.5902C58.7466 90.9408 59.227 91.1357 59.726 91.1357C60.2249 91.1357 60.7053 90.9408 61.071 90.5902C61.4366 90.2396 61.6603 89.7592 61.6973 89.2453V71.8024C61.698 71.5348 61.6475 71.2697 61.5487 71.0223C61.4499 70.775 61.3047 70.5503 61.1215 70.3611C60.9383 70.1719 60.7207 70.0219 60.4812 69.9199C60.2417 69.8178 59.985 69.7657 59.726 69.7664H51.2868C50.764 69.7664 50.2625 69.9809 49.8928 70.3627C49.5232 70.7445 49.3155 71.2624 49.3155 71.8024C49.3155 72.3423 49.5232 72.8602 49.8928 73.242C50.2625 73.6238 50.764 73.8383 51.2868 73.8383H51.2813ZM147.072 69.1158H140.121C139.862 69.1151 139.605 69.1672 139.366 69.2693C139.126 69.3713 138.909 69.5212 138.725 69.7105C138.542 69.8997 138.397 70.1244 138.298 70.3717C138.199 70.6191 138.149 70.8842 138.15 71.1517V85.5156C138.15 86.0555 138.357 86.5734 138.727 86.9552C139.097 87.337 139.598 87.5515 140.121 87.5515C140.644 87.5515 141.145 87.337 141.515 86.9552C141.884 86.5734 142.092 86.0555 142.092 85.5156V73.1877H147.072C147.595 73.1877 148.096 72.9732 148.466 72.5914C148.836 72.2096 149.043 71.6917 149.043 71.1517C149.043 70.6118 148.836 70.0939 148.466 69.7121C148.096 69.3303 147.595 69.1158 147.072 69.1158ZM8.92794 69.7327H13.9078V82.0606C13.9448 82.5745 14.1685 83.0549 14.5341 83.4055C14.8998 83.7561 15.3802 83.951 15.8791 83.951C16.3781 83.951 16.8585 83.7561 17.2241 83.4055C17.5898 83.0549 17.8135 82.5745 17.8504 82.0606V67.6968C17.8512 67.4292 17.8007 67.1641 17.7019 66.9168C17.603 66.6694 17.4579 66.4447 17.2747 66.2555C17.0915 66.0663 16.8739 65.9164 16.6344 65.8143C16.3949 65.7122 16.1382 65.6601 15.8791 65.6608H8.92794C8.40511 65.6608 7.9037 65.8753 7.53401 66.2572C7.16432 66.639 6.95662 67.1568 6.95662 67.6968C6.95662 68.2368 7.16432 68.7546 7.53401 69.1364C7.9037 69.5182 8.40511 69.7327 8.92794 69.7327ZM126.208 11.6492C124.087 11.5927 121.978 11.9753 120.003 12.7744C118.028 13.5735 116.228 14.773 114.71 16.3021C113.191 17.8311 111.984 19.6588 111.16 21.6773C110.336 23.6958 109.912 25.8643 109.913 28.0548C109.914 30.2453 110.339 32.4134 111.164 34.4314C111.99 36.4493 113.198 38.2761 114.717 39.8041C116.237 41.3321 118.038 42.5303 120.013 43.328C121.988 44.1257 124.098 44.5068 126.218 44.4488C130.358 44.3355 134.291 42.5573 137.18 39.4929C140.068 36.4285 141.684 32.3203 141.682 28.0436C141.681 23.7668 140.062 19.6598 137.172 16.5974C134.281 13.5351 130.347 11.7596 126.208 11.6492ZM29.787 8.19428C25.575 8.19726 21.5364 9.92663 18.558 13.0026C15.5797 16.0786 13.9053 20.2496 13.9024 24.5997C13.9024 27.8444 14.834 31.0162 16.5794 33.714C18.3248 36.4119 20.8057 38.5146 23.7082 39.7563C26.6107 40.998 29.8046 41.3229 32.8859 40.6899C35.9672 40.0568 38.7975 38.4944 41.019 36.2C43.2405 33.9057 44.7534 30.9825 45.3663 27.8002C45.9792 24.6179 45.6646 21.3193 44.4624 18.3216C43.2601 15.3239 41.2241 12.7617 38.6119 10.9591C35.9997 9.15644 32.9286 8.19428 29.787 8.19428ZM126.202 15.7211C128.566 15.7189 130.877 16.4408 132.843 17.7956C134.81 19.1503 136.343 21.077 137.248 23.3318C138.154 25.5866 138.392 28.0682 137.932 30.4627C137.472 32.8571 136.334 35.0568 134.663 36.7833C132.992 38.5099 130.863 39.6857 128.545 40.1621C126.226 40.6385 123.823 40.394 121.64 39.4595C119.456 38.5251 117.59 36.9427 116.277 34.9126C114.965 32.8824 114.265 30.4958 114.266 28.0546C114.267 24.785 115.525 21.6497 117.763 19.3372C120.001 17.0247 123.036 15.7241 126.202 15.7211ZM76.6098 0C71.6085 0.00297194 66.8129 2.05617 63.2765 5.70854C59.7401 9.36091 57.7521 14.3137 57.7492 19.479C57.8674 24.5642 59.9063 29.4 63.4305 32.9534C66.9547 36.5069 71.6846 38.496 76.6098 38.496C81.5349 38.496 86.2649 36.5069 89.789 32.9534C93.3132 29.4 95.3521 24.5642 95.4703 19.479C95.4689 14.3133 93.4813 9.35958 89.9446 5.7069C86.4079 2.05421 81.6115 0.00148674 76.6098 0ZM29.787 12.2662C32.8771 12.3841 35.8026 13.7348 37.9484 16.0344C40.0943 18.334 41.2932 21.4032 41.2932 24.5969C41.2932 27.7905 40.0943 30.8598 37.9484 33.1594C35.8026 35.4589 32.8771 36.8097 29.787 36.9276C26.6968 36.8097 23.7713 35.4589 21.6255 33.1594C19.4796 30.8598 18.2807 27.7905 18.2807 24.5969C18.2807 21.4032 19.4796 18.334 21.6255 16.0344C23.7713 13.7348 26.6968 12.3841 29.787 12.2662ZM76.6098 4.07191C79.5618 4.0708 82.4478 4.97393 84.9028 6.66707C87.3577 8.36021 89.2713 10.7673 90.4015 13.5838C91.5317 16.4003 91.8277 19.4998 91.2521 22.49C90.6764 25.4803 89.255 28.2271 87.1676 30.383C85.0802 32.5388 82.4206 34.0068 79.5253 34.6013C76.6299 35.1959 73.6289 34.8902 70.9018 33.7229C68.1747 32.5557 65.844 30.5793 64.2046 28.0439C62.5652 25.5084 61.6908 22.5278 61.6918 19.479C61.6933 15.3932 63.2654 11.4752 66.0628 8.58617C68.8601 5.69711 72.6537 4.07339 76.6098 4.07191Z" fill="#040804"/>
</svg>
