<svg width="116" height="123" viewBox="0 0 116 123" fill="none" xmlns="http://www.w3.org/2000/svg">
<path fill-rule="evenodd" clip-rule="evenodd" d="M46.0937 11.8252L50.8162 15.5982L49.2267 21.4099C48.9574 22.3949 49.3202 23.4187 50.1506 24.0188C50.5682 24.3229 51.0722 24.4871 51.5898 24.4878C52.0546 24.4878 52.5205 24.3542 52.9329 24.0861L58.0019 20.7877L63.0714 24.0861C63.9309 24.6451 65.0228 24.6194 65.8549 24.0181C66.6846 23.418 67.0469 22.3944 66.7776 21.4097L65.1881 15.5982L69.9103 11.8254C70.7108 11.1866 71.023 10.1464 70.7064 9.17564C70.3893 8.20415 69.5214 7.54423 68.4953 7.49474L62.4435 7.20142L60.293 1.57135C59.9281 0.617155 59.029 0 58.0021 0C56.975 0 56.0757 0.616675 55.7112 1.57087L53.5607 7.20142L47.5093 7.49474C46.4828 7.54423 45.6147 8.20415 45.2986 9.17372C44.9803 10.1455 45.293 11.1866 46.0937 11.8252ZM54.6749 10.9956C55.1511 10.9728 55.6103 10.8123 55.9961 10.5338C56.3819 10.2554 56.6775 9.87098 56.8467 9.42789L58.0019 6.40313L59.1571 9.42813C59.3263 9.87108 59.6218 10.2553 60.0074 10.5338C60.3931 10.8122 60.8521 10.9727 61.3282 10.9956L64.579 11.1532L62.0421 13.1801C61.6705 13.4769 61.3941 13.875 61.2468 14.3257C61.0995 14.7763 61.0876 15.2599 61.2127 15.7172L62.0665 18.8392L59.3447 17.0682C58.9458 16.8081 58.4792 16.6695 58.0022 16.6693C57.5251 16.6691 57.0584 16.8074 56.6594 17.0673L53.9361 18.8392L54.7902 15.7162C54.9152 15.2591 54.9032 14.7756 54.7559 14.3251C54.6085 13.8746 54.3321 13.4767 53.9605 13.1801L51.4238 11.1532L54.6749 10.9956ZM73.348 17.0209L78.0707 20.7937L76.4812 26.6054C76.2119 27.5904 76.5747 28.6142 77.4051 29.2143C77.8227 29.5184 78.3267 29.6826 78.8444 29.6833C79.3091 29.6833 79.7751 29.5497 80.1874 29.2816L85.2567 25.9832L90.3262 29.2816C91.1851 29.8404 92.2763 29.8144 93.1096 29.2136C93.9396 28.6135 94.3019 27.5896 94.0324 26.6054L92.4429 20.7937L97.1651 17.0211C97.966 16.3811 98.2783 15.3405 97.9612 14.3711C97.6441 13.3996 96.7762 12.7397 95.75 12.6902L89.6983 12.3969L87.5478 6.76684C87.1831 5.81264 86.2841 5.19549 85.2571 5.19549C84.23 5.19549 83.3307 5.81216 82.9662 6.76636L80.8157 12.3969L74.7643 12.6902C73.7378 12.7397 72.8697 13.3996 72.5536 14.3692C72.2355 15.3397 72.5473 16.3802 73.348 17.0209ZM81.9297 16.1909C82.4059 16.1681 82.8651 16.0076 83.2509 15.7291C83.6366 15.4506 83.9323 15.0662 84.1014 14.6231L85.2564 11.5984L86.4119 14.6234C86.581 15.0663 86.8765 15.4506 87.2622 15.729C87.6478 16.0075 88.1068 16.168 88.5829 16.1909L91.8338 16.3485L89.2966 18.3756C88.9249 18.6722 88.6485 19.0703 88.5012 19.521C88.3539 19.9716 88.3422 20.4552 88.4674 20.9124L89.3213 24.0344L86.5995 22.2635C86.2006 22.0032 85.7339 21.8644 85.2568 21.8642C84.7797 21.8641 84.3129 22.0025 83.9139 22.2625L81.1908 24.0342L82.045 20.9119C82.1699 20.4547 82.1579 19.9712 82.0106 19.5207C81.8632 19.0701 81.5868 18.6721 81.2153 18.3753L78.6783 16.3485L81.9297 16.1909ZM18.8387 17.0209L23.5612 20.7937L21.9724 26.6037C21.7019 27.5894 22.0642 28.614 22.8956 29.2146C23.3133 29.5185 23.8174 29.6828 24.3351 29.6837C24.8 29.6837 25.266 29.5502 25.6778 29.2818L30.7471 25.9834L35.8167 29.2818C36.6761 29.8411 37.7678 29.8149 38.5992 29.2146C39.4298 28.6147 39.7923 27.5906 39.5229 26.6056L37.9333 20.794L42.657 17.0204C43.457 16.3804 43.7687 15.34 43.4517 14.3714C43.1346 13.3999 42.2667 12.74 41.2405 12.6905L35.1888 12.3972L33.0383 6.76708C32.6736 5.81288 31.7745 5.19573 30.7476 5.19573C29.7195 5.19573 28.82 5.81312 28.4572 6.7666L26.3065 12.3972L20.2547 12.6905C19.2295 12.74 18.3616 13.3992 18.0433 14.3714C17.7265 15.3417 18.0387 16.3816 18.8387 17.0209ZM27.4201 16.1909C27.8964 16.1682 28.3556 16.0078 28.7414 15.7293C29.1271 15.4507 29.4227 15.0663 29.5916 14.6231L30.7471 11.5986L31.9024 14.6234C32.0715 15.0663 32.367 15.4506 32.7527 15.729C33.1383 16.0075 33.5973 16.168 34.0734 16.1909L37.3243 16.3485L34.7859 18.376C34.4149 18.6731 34.139 19.0711 33.9919 19.5215C33.8449 19.9719 33.8331 20.4552 33.9579 20.9122L34.8117 24.0342L32.0899 22.2632C31.691 22.0031 31.2244 21.8645 30.7474 21.8643C30.2704 21.8642 29.8036 22.0025 29.4046 22.2623L26.6815 24.034L27.5354 20.9117C27.6605 20.4545 27.6486 19.9709 27.5012 19.5204C27.3539 19.0698 27.0774 18.6717 26.7057 18.3751L24.1688 16.3482L27.4201 16.1909ZM38.247 46.7577C39.6976 45.2575 40.5925 43.2222 40.5925 40.9821C40.5925 36.3824 36.8276 32.6398 32.1999 32.6398C27.5721 32.6398 23.8072 36.3821 23.8072 40.9821C23.8072 43.2229 24.7024 45.2589 26.154 46.7592C22.391 48.4338 19.4318 51.6481 18.1473 55.7712C17.6849 57.2549 17.9493 58.8195 18.8721 60.0639C19.795 61.3085 21.2207 62.0223 22.7837 62.0223H39.0915V63.5309C39.0915 67.0916 42.0061 69.9886 45.5884 69.9886H70.4159C73.9976 69.9886 76.9123 67.0916 76.9126 63.5309V62.023H93.2206C94.7835 62.023 96.209 61.309 97.1322 60.0646C98.055 58.82 98.3191 57.2554 97.8568 55.7717C96.5725 51.6486 93.6131 48.4343 89.8503 46.7596C91.3019 45.2591 92.1971 43.2234 92.1971 40.9825C92.1971 36.3828 88.4321 32.6403 83.8044 32.6403C79.1767 32.6403 75.4117 36.3826 75.4117 40.9825C75.4117 43.2227 76.3064 45.2577 77.757 46.758C75.9305 47.5734 74.2932 48.7551 72.9475 50.2288C70.8484 47.5775 68.0723 45.5343 64.9087 44.3119C67.1481 42.3845 68.569 39.5414 68.569 36.3727C68.569 30.5812 63.8289 25.8691 58.0021 25.8691C52.1754 25.8691 47.4351 30.581 47.4351 36.3727C47.4351 39.5414 48.8559 42.3845 51.0953 44.3119C47.9317 45.5344 45.1557 47.5776 43.0565 50.2288C41.7109 48.7549 40.0736 47.5732 38.247 46.7577ZM32.1999 36.4835C34.6953 36.4835 36.7256 38.5014 36.7256 40.9821C36.7256 43.4627 34.6955 45.4806 32.1999 45.4806C29.7043 45.4806 27.6741 43.4627 27.6741 40.9821C27.6741 38.5014 29.7045 36.4835 32.1999 36.4835ZM21.9849 57.7834C21.8921 57.6596 21.8306 57.5155 21.8056 57.3631C21.7806 57.2108 21.7927 57.0547 21.8411 56.908C23.2547 52.3717 27.4172 49.3241 32.1996 49.3241C35.6767 49.3241 38.8524 50.9325 40.8942 53.6687C40.1955 55.1017 39.6827 56.6171 39.3682 58.1786H22.7837C22.6284 58.1812 22.4748 58.1467 22.3358 58.0779C22.1968 58.0091 22.0764 57.9081 21.9849 57.7834ZM79.2784 40.9825C79.2784 38.5022 81.3085 36.484 83.8042 36.484C86.2998 36.484 88.3299 38.5019 88.3299 40.9825C88.3299 43.4632 86.2998 45.4811 83.8042 45.4811C81.3085 45.4811 79.2784 43.4629 79.2784 40.9825ZM83.8042 49.3246C88.5868 49.3246 92.7495 52.3724 94.1627 56.9087C94.211 57.0554 94.2233 57.2115 94.1983 57.3638C94.1733 57.5161 94.1118 57.6603 94.0191 57.7841C93.9276 57.9089 93.8072 58.0099 93.6682 58.0787C93.5291 58.1476 93.3754 58.1821 93.2201 58.1795H76.6356C76.3209 56.618 75.8082 55.1024 75.1096 53.6692C77.1511 50.9332 80.3271 49.3246 83.8042 49.3246ZM58.0021 29.7128C61.6965 29.7128 64.7021 32.7006 64.7021 36.3727C64.7021 40.0449 61.6965 43.0324 58.0021 43.0324C54.3078 43.0324 51.302 40.0449 51.302 36.3727C51.302 32.7006 54.3078 29.7128 58.0021 29.7128ZM58.0019 46.8759C65.7263 46.8759 72.1758 52.5997 73.0454 60.2061V63.5309C73.0452 64.9723 71.8655 66.1451 70.4157 66.1451H45.5884C44.1383 66.1451 42.9584 64.9726 42.9584 63.5312V60.2061C43.8279 52.5997 50.2775 46.8759 58.0019 46.8759ZM114.807 78.2237C113.699 76.3843 109.152 70.9219 97.1786 77.8538L76.1614 90.0215C75.1645 90.5985 74.1514 91.0146 73.0971 91.2736C73.4739 90.6425 73.7714 89.9365 73.9805 89.1607C75.0639 85.14 72.6609 80.9422 68.5095 79.6043C68.4265 79.5779 68.3419 79.5568 68.2562 79.5412C62.2219 78.4594 56.2637 76.3182 51.476 74.5979C49.8106 73.9995 48.2379 73.4342 46.8997 73.003C41.4921 71.2587 36.6123 73.414 32.5506 75.7515L16.9739 84.7157L15.2995 81.7748C14.64 80.616 13.5623 79.7809 12.2657 79.4239C10.9695 79.0669 9.61273 79.2313 8.44733 79.8873L2.55052 83.2047C0.137808 84.562 -0.714365 87.6173 0.651382 90.0157L17.988 120.465C18.9119 122.088 20.618 123 22.3721 123C23.2105 123 24.06 122.791 24.8402 122.353L30.7372 119.035C31.9029 118.379 32.7429 117.308 33.1021 116.02C33.4615 114.731 33.2962 113.383 32.6361 112.224L31.1164 109.555L34.5974 107.557L61.4887 114.719C63.0151 115.126 64.5138 115.329 65.9801 115.329C68.9035 115.329 71.6983 114.522 74.3288 112.912L112.47 89.5675C115.977 87.4215 117.091 82.0146 114.807 78.2237ZM29.3763 114.993C29.3366 115.139 29.2681 115.276 29.1748 115.396C29.0816 115.515 28.9654 115.615 28.833 115.69L22.936 119.008C22.8033 119.082 22.6572 119.129 22.506 119.147C22.3548 119.165 22.2015 119.153 22.055 119.112C21.908 119.072 21.7704 119.004 21.65 118.912C21.5296 118.819 21.4289 118.703 21.3537 118.572L4.01681 88.1225C3.94201 87.9906 3.89424 87.8454 3.87623 87.6951C3.85823 87.5448 3.87036 87.3924 3.91192 87.2468C3.95174 87.1007 4.02027 86.9639 4.11356 86.8442C4.20685 86.7246 4.32305 86.6245 4.45546 86.5497L10.3523 83.2323C10.5242 83.1356 10.7183 83.0848 10.9159 83.0848C11.0217 83.0848 11.1281 83.0992 11.2332 83.1283C11.3802 83.1678 11.5178 83.2358 11.6382 83.3285C11.7585 83.4212 11.8592 83.5367 11.9343 83.6683L26.813 109.8L26.8152 109.804L26.8169 109.807L29.2712 114.117C29.4225 114.383 29.4597 114.694 29.3763 114.993ZM110.443 86.2945L72.3018 109.639C69.294 111.48 65.9922 111.941 62.4899 111.007L34.825 103.639C34.5798 103.573 34.324 103.556 34.0723 103.589C33.8206 103.622 33.5779 103.704 33.358 103.83L29.212 106.21L18.8788 88.0612L34.4884 79.078C37.9792 77.0689 41.7546 75.3847 45.7068 76.6596C46.9838 77.0711 48.4564 77.6001 50.1615 78.2129C55.0495 79.9695 61.1242 82.1522 67.4297 83.2989C69.5886 84.0513 70.7958 86.1237 70.245 88.1664C69.5207 90.8532 67.2646 91.1893 65.4689 90.9846C62.3766 90.3525 59.4368 89.5185 56.3261 88.6354C54.8494 88.2162 53.3222 87.7825 51.7522 87.3645C51.2569 87.2326 50.7292 87.3017 50.2851 87.5565C49.841 87.8114 49.5169 88.2312 49.3842 88.7235C49.2515 89.2159 49.321 89.7405 49.5774 90.1819C49.8338 90.6233 50.2561 90.9454 50.7514 91.0773C52.2907 91.4871 53.8022 91.9162 55.2639 92.3313C58.4727 93.2423 61.5036 94.1028 64.7688 94.7663C64.7813 94.769 64.7939 94.7697 64.8062 94.7721C64.8195 94.7745 64.8321 94.7783 64.8456 94.7805L67.4589 95.2028C71.3841 95.8277 74.867 95.2189 78.107 93.3437L99.1242 81.1759C105.138 77.6952 109.76 77.3298 111.489 80.1994C112.679 82.1729 112.151 85.2493 110.443 86.2945ZM12.264 89.4656C12.3068 89.7388 12.2948 90.0178 12.2286 90.2864C12.1624 90.5549 12.0432 90.8078 11.8781 91.0303C11.713 91.2529 11.5051 91.4407 11.2665 91.5829C11.028 91.7252 10.7634 91.819 10.4881 91.859C10.2129 91.899 9.93234 91.8844 9.66278 91.816C9.39323 91.7476 9.13999 91.6267 8.91768 91.4605C8.69538 91.2942 8.50843 91.0858 8.36763 90.8473C8.22683 90.6088 8.13498 90.345 8.09738 90.071C8.02237 89.5244 8.16746 88.9706 8.5011 88.5298C8.83475 88.089 9.32996 87.797 9.87906 87.7172C10.4282 87.6374 10.9867 87.7763 11.4333 88.1038C11.88 88.4312 12.1785 88.9206 12.264 89.4656Z" fill="black"/>
</svg>
