<svg width="110" height="151" viewBox="0 0 110 151" fill="none" xmlns="http://www.w3.org/2000/svg">
<path d="M108 131.394L108 132.38C108 134.363 108 135.354 107.471 136.123C106.941 136.891 106.025 137.241 104.193 137.94C65.8117 152.59 42.9751 153.226 5.40317 137.878C3.90155 137.265 3.15075 136.958 2.66568 136.357C2.55677 136.222 2.45668 136.073 2.37295 135.921C2.00008 135.245 2.00014 134.424 2.00025 132.782V132.782C2.00025 122.251 8.24747 113.013 17.2787 110.197L38.8671 103.459C39.3232 103.318 39.7918 103.242 40.2654 103.242V103.242C42.2193 103.242 43.1963 103.242 43.8278 103.556C44.0411 103.663 44.0577 103.673 44.2506 103.812C44.822 104.226 45.5814 105.678 47.1003 108.581C48.7313 111.699 51.7471 113.792 55.1981 113.792C58.6491 113.792 61.6661 111.699 63.2978 108.581C64.8174 105.678 65.5771 104.226 66.1485 103.812C66.3414 103.672 66.3579 103.662 66.5712 103.556C67.2027 103.242 68.1795 103.242 70.1333 103.242V103.242C70.6044 103.242 71.0755 103.318 71.5316 103.459L93.1174 110.197C102.149 113.013 108 120.863 108 131.394Z" stroke="black" stroke-width="3" stroke-miterlimit="10"/>
<path d="M64.5872 92.9449V103.242C64.5872 109.068 60.3823 113.792 55.1975 113.792C50.0128 113.792 45.8104 109.068 45.8104 103.242V92.9449C48.7022 94.2964 51.8722 95.0398 55.1975 95.0398C58.5229 95.0398 61.6953 94.2964 64.5872 92.9449ZM86.491 49.3266V57.036C85.6691 56.4222 84.6818 56.0674 83.6218 56.0674H79.71V46.3982H83.8849C85.3233 46.3982 86.491 47.7103 86.491 49.3266ZM30.6848 46.3982V56.0674H26.7731C25.7131 56.0674 24.7257 56.4222 23.9038 57.036V49.3266C23.9038 47.7103 25.0716 46.3982 26.5125 46.3982H30.6848Z" stroke="black" stroke-width="3" stroke-miterlimit="10"/>
<path d="M30.9983 71.8917H26.7734C23.8941 71.8917 21.5586 69.2674 21.5586 66.0293V61.9268C21.5586 59.8826 22.4908 58.0834 23.9041 57.0359C24.7261 56.4221 25.7134 56.0673 26.7734 56.0673H30.6851V67.4963C30.6851 68.9915 30.7903 70.4613 30.9983 71.8917ZM88.8394 61.9268V66.0293C88.8394 69.2674 86.5039 71.8917 83.6221 71.8917H79.3971C79.6051 70.4613 79.7104 68.9915 79.7104 67.4963V56.0673H83.6221C84.6821 56.0673 85.6694 56.4221 86.4913 57.0359C87.9072 58.0806 88.8394 59.8826 88.8394 61.9268Z" stroke="black" stroke-width="3" stroke-miterlimit="10"/>
<path d="M79.7111 46.3982V67.4964C79.7111 68.9916 79.6058 70.4614 79.3978 71.8918C78.0396 81.437 72.3086 89.3464 64.5879 92.9449C61.6961 94.2964 58.5236 95.0398 55.1983 95.0398C51.873 95.0398 48.703 94.2964 45.8112 92.9449C38.0905 89.3464 32.3595 81.4399 30.9988 71.8918C30.7908 70.4614 30.6855 68.9916 30.6855 67.4964V46.3982C49.336 55.2042 60.0511 55.163 79.7111 46.3982Z" stroke="black" stroke-width="3" stroke-miterlimit="10"/>
<path d="M74.94 33.812L70.0359 30.6331C70.2038 29.6138 70.2965 28.5663 70.2965 27.4935C70.2965 26.4207 70.2038 25.3733 70.0359 24.354L74.94 21.1751C76.1854 20.3641 76.6139 18.5733 75.8947 17.1711L73.4039 12.3224C72.6822 10.923 71.0884 10.4415 69.8405 11.2496L64.9364 14.4342C63.5231 13.0742 61.8892 11.9986 60.1 11.2891V4.93117C60.1 3.31213 58.9323 2 57.4914 2H52.5096C51.0687 2 49.901 3.31213 49.901 4.93117V11.2891C48.1118 11.9986 46.4779 13.0742 45.0646 14.4342L40.1605 11.2496C38.9126 10.4415 37.3188 10.923 36.5971 12.3224L34.1063 17.1711C33.3871 18.5705 33.8156 20.3641 35.061 21.1751L39.9651 24.354C39.7972 25.3733 39.7045 26.4207 39.7045 27.4935C39.7045 28.5663 39.7972 29.6138 39.9651 30.6331L35.061 33.812C33.8156 34.6229 33.3871 36.4137 34.1063 37.816L36.5971 42.6618C37.3188 44.064 38.9126 44.5455 40.1605 43.7374L45.0646 40.5528C46.4779 41.9128 48.1118 42.9884 49.901 43.698V46.3983C53.8818 49.9602 56.1175 49.8146 60.1 46.3983V43.698C61.8892 42.9884 63.5231 41.9128 64.9364 40.5528L69.8405 43.7374C71.0884 44.5455 72.6822 44.064 73.4039 42.6618L75.8947 37.816C76.6139 36.4166 76.1854 34.6229 74.94 33.812ZM55.0005 33.2235C52.1839 33.2235 49.901 30.6584 49.901 27.4935C49.901 24.3287 52.1839 21.7635 55.0005 21.7635C57.8171 21.7635 60.1 24.3287 60.1 27.4935C60.1 30.6584 57.8171 33.2235 55.0005 33.2235Z" stroke="black" stroke-width="3" stroke-miterlimit="10"/>
</svg>
